<mxfile host="app.diagrams.net" agent="Mozilla/5.0 (Windows NT 10.0; Win64; x64) AppleWebKit/537.36 (KHTML, like Gecko) Chrome/133.0.0.0 Safari/537.36" version="26.0.16">
  <diagram name="Page-1" id="DKQCENVJ7knnAqa02bN2">
    <mxGraphModel dx="768" dy="418" grid="1" gridSize="10" guides="1" tooltips="1" connect="1" arrows="1" fold="1" page="1" pageScale="1" pageWidth="850" pageHeight="1100" math="0" shadow="0">
      <root>
        <mxCell id="0" />
        <mxCell id="1" parent="0" />
        <mxCell id="PO5O308o9J2wlEK242Sw-4" value="" style="edgeStyle=orthogonalEdgeStyle;rounded=0;orthogonalLoop=1;jettySize=auto;html=1;strokeWidth=2;" edge="1" parent="1" source="PO5O308o9J2wlEK242Sw-1" target="PO5O308o9J2wlEK242Sw-2">
          <mxGeometry relative="1" as="geometry" />
        </mxCell>
        <mxCell id="PO5O308o9J2wlEK242Sw-1" value="Início" style="ellipse;whiteSpace=wrap;html=1;strokeWidth=2;" vertex="1" parent="1">
          <mxGeometry x="320" y="240" width="130" height="80" as="geometry" />
        </mxCell>
        <mxCell id="PO5O308o9J2wlEK242Sw-6" value="" style="edgeStyle=orthogonalEdgeStyle;rounded=0;orthogonalLoop=1;jettySize=auto;html=1;strokeWidth=2;" edge="1" parent="1" source="PO5O308o9J2wlEK242Sw-2" target="PO5O308o9J2wlEK242Sw-5">
          <mxGeometry relative="1" as="geometry" />
        </mxCell>
        <mxCell id="PO5O308o9J2wlEK242Sw-2" value="Recebe &quot;nota&quot;:&lt;br&gt;A,B,C,D,E" style="shape=parallelogram;perimeter=parallelogramPerimeter;whiteSpace=wrap;html=1;fixedSize=1;strokeWidth=2;" vertex="1" parent="1">
          <mxGeometry x="500" y="240" width="160" height="80" as="geometry" />
        </mxCell>
        <mxCell id="PO5O308o9J2wlEK242Sw-9" style="edgeStyle=orthogonalEdgeStyle;rounded=0;orthogonalLoop=1;jettySize=auto;html=1;exitX=0;exitY=1;exitDx=0;exitDy=0;entryX=0.5;entryY=0;entryDx=0;entryDy=0;strokeWidth=2;" edge="1" parent="1" source="PO5O308o9J2wlEK242Sw-5" target="PO5O308o9J2wlEK242Sw-7">
          <mxGeometry relative="1" as="geometry">
            <Array as="points">
              <mxPoint x="660" y="315" />
            </Array>
          </mxGeometry>
        </mxCell>
        <mxCell id="PO5O308o9J2wlEK242Sw-11" style="edgeStyle=orthogonalEdgeStyle;rounded=0;orthogonalLoop=1;jettySize=auto;html=1;exitX=1;exitY=1;exitDx=0;exitDy=0;entryX=0.5;entryY=0;entryDx=0;entryDy=0;strokeWidth=2;" edge="1" parent="1" source="PO5O308o9J2wlEK242Sw-5" target="PO5O308o9J2wlEK242Sw-8">
          <mxGeometry relative="1" as="geometry">
            <Array as="points">
              <mxPoint x="880" y="315" />
            </Array>
          </mxGeometry>
        </mxCell>
        <mxCell id="PO5O308o9J2wlEK242Sw-5" value="A &quot;nota&quot; é igual a A,B,C?" style="rhombus;whiteSpace=wrap;html=1;strokeWidth=2;" vertex="1" parent="1">
          <mxGeometry x="710" y="210" width="140" height="140" as="geometry" />
        </mxCell>
        <mxCell id="PO5O308o9J2wlEK242Sw-19" style="edgeStyle=orthogonalEdgeStyle;rounded=0;orthogonalLoop=1;jettySize=auto;html=1;exitX=1;exitY=0.5;exitDx=0;exitDy=0;entryX=0;entryY=0;entryDx=0;entryDy=0;strokeWidth=2;" edge="1" parent="1" source="PO5O308o9J2wlEK242Sw-7" target="PO5O308o9J2wlEK242Sw-14">
          <mxGeometry relative="1" as="geometry">
            <Array as="points">
              <mxPoint x="727" y="420" />
            </Array>
          </mxGeometry>
        </mxCell>
        <mxCell id="PO5O308o9J2wlEK242Sw-7" value="&lt;div&gt;Mostra:&lt;/div&gt;=Promovido" style="shape=document;whiteSpace=wrap;html=1;boundedLbl=1;strokeWidth=2;" vertex="1" parent="1">
          <mxGeometry x="600" y="380" width="120" height="80" as="geometry" />
        </mxCell>
        <mxCell id="PO5O308o9J2wlEK242Sw-20" style="edgeStyle=orthogonalEdgeStyle;rounded=0;orthogonalLoop=1;jettySize=auto;html=1;exitX=0;exitY=0.5;exitDx=0;exitDy=0;entryX=1;entryY=0;entryDx=0;entryDy=0;strokeWidth=2;" edge="1" parent="1" source="PO5O308o9J2wlEK242Sw-8" target="PO5O308o9J2wlEK242Sw-14">
          <mxGeometry relative="1" as="geometry">
            <Array as="points">
              <mxPoint x="813" y="420" />
            </Array>
          </mxGeometry>
        </mxCell>
        <mxCell id="PO5O308o9J2wlEK242Sw-8" value="&lt;div&gt;Mostra:&lt;/div&gt;=Retido" style="shape=document;whiteSpace=wrap;html=1;boundedLbl=1;strokeWidth=2;" vertex="1" parent="1">
          <mxGeometry x="820" y="380" width="120" height="80" as="geometry" />
        </mxCell>
        <mxCell id="PO5O308o9J2wlEK242Sw-12" value="Sim" style="text;html=1;align=center;verticalAlign=middle;resizable=0;points=[];autosize=1;strokeColor=none;fillColor=none;" vertex="1" parent="1">
          <mxGeometry x="670" y="318" width="40" height="30" as="geometry" />
        </mxCell>
        <mxCell id="PO5O308o9J2wlEK242Sw-13" value="Não" style="text;html=1;align=center;verticalAlign=middle;resizable=0;points=[];autosize=1;strokeColor=none;fillColor=none;" vertex="1" parent="1">
          <mxGeometry x="815" y="318" width="50" height="30" as="geometry" />
        </mxCell>
        <mxCell id="PO5O308o9J2wlEK242Sw-14" value="Fim" style="ellipse;whiteSpace=wrap;html=1;strokeWidth=2;" vertex="1" parent="1">
          <mxGeometry x="710" y="500" width="120" height="70" as="geometry" />
        </mxCell>
      </root>
    </mxGraphModel>
  </diagram>
</mxfile>
